<svg width="16" height="15" viewBox="0 0 16 15" fill="none" xmlns="http://www.w3.org/2000/svg">
<g clip-path="url(#clip0_35_1431)">
<path d="M8 7.5C8.74168 7.5 9.4667 7.28007 10.0834 6.86801C10.7001 6.45596 11.1807 5.87029 11.4645 5.18506C11.7484 4.49984 11.8226 3.74584 11.6779 3.01841C11.5333 2.29098 11.1761 1.6228 10.6517 1.09835C10.1272 0.573904 9.45902 0.216751 8.73159 0.0720569C8.00416 -0.0726377 7.25016 0.00162482 6.56494 0.285453C5.87971 0.569282 5.29404 1.04993 4.88199 1.66661C4.46993 2.2833 4.25 3.00832 4.25 3.75C4.25099 4.74426 4.6464 5.69751 5.34945 6.40055C6.05249 7.1036 7.00574 7.49901 8 7.5ZM8 1.25C8.49445 1.25 8.9778 1.39662 9.38893 1.67133C9.80005 1.94603 10.1205 2.33648 10.3097 2.79329C10.4989 3.25011 10.5484 3.75277 10.452 4.23773C10.3555 4.72268 10.1174 5.16814 9.76777 5.51777C9.41814 5.8674 8.97268 6.1055 8.48773 6.20196C8.00277 6.29843 7.50011 6.24892 7.04329 6.0597C6.58648 5.87048 6.19603 5.55005 5.92133 5.13893C5.64662 4.7278 5.5 4.24445 5.5 3.75C5.5 3.08696 5.76339 2.45107 6.23223 1.98223C6.70107 1.51339 7.33696 1.25 8 1.25Z" fill="black"/>
<path d="M8 8.75C6.50866 8.75165 5.07888 9.34482 4.02435 10.3994C2.96982 11.4539 2.37665 12.8837 2.375 14.375C2.375 14.5408 2.44085 14.6997 2.55806 14.8169C2.67527 14.9342 2.83424 15 3 15C3.16576 15 3.32473 14.9342 3.44194 14.8169C3.55915 14.6997 3.625 14.5408 3.625 14.375C3.625 13.2147 4.08594 12.1019 4.90641 11.2814C5.72688 10.4609 6.83968 10 8 10C9.16032 10 10.2731 10.4609 11.0936 11.2814C11.9141 12.1019 12.375 13.2147 12.375 14.375C12.375 14.5408 12.4408 14.6997 12.5581 14.8169C12.6753 14.9342 12.8342 15 13 15C13.1658 15 13.3247 14.9342 13.4419 14.8169C13.5592 14.6997 13.625 14.5408 13.625 14.375C13.6233 12.8837 13.0302 11.4539 11.9756 10.3994C10.9211 9.34482 9.49133 8.75165 8 8.75Z" fill="black"/>
</g>
<defs>
<clipPath id="clip0_35_1431">
<rect width="15" height="15" fill="white" transform="translate(0.5)"/>
</clipPath>
</defs>
</svg>
