<svg width="16" height="15" viewBox="0 0 16 15" fill="none" xmlns="http://www.w3.org/2000/svg">
<path d="M8.00004 7.5C8.49449 7.5 8.97784 7.35338 9.38896 7.07867C9.80009 6.80397 10.1205 6.41352 10.3097 5.95671C10.499 5.49989 10.5485 4.99723 10.452 4.51227C10.3555 4.02732 10.1174 3.58186 9.76781 3.23223C9.41817 2.8826 8.97272 2.6445 8.48776 2.54804C8.00281 2.45157 7.50014 2.50108 7.04333 2.6903C6.58651 2.87952 6.19607 3.19995 5.92136 3.61107C5.64666 4.0222 5.50004 4.50555 5.50004 5C5.50004 5.66304 5.76343 6.29893 6.23227 6.76777C6.70111 7.23661 7.337 7.5 8.00004 7.5ZM8.00004 3.75C8.24726 3.75 8.48894 3.82331 8.6945 3.96066C8.90006 4.09801 9.06028 4.29324 9.15489 4.52165C9.2495 4.75005 9.27425 5.00139 9.22602 5.24386C9.17779 5.48634 9.05874 5.70907 8.88392 5.88388C8.70911 6.0587 8.48638 6.17775 8.2439 6.22598C8.00142 6.27421 7.75009 6.24946 7.52168 6.15485C7.29328 6.06024 7.09805 5.90002 6.9607 5.69446C6.82335 5.4889 6.75004 5.24723 6.75004 5C6.75004 4.66848 6.88173 4.35054 7.11615 4.11612C7.35057 3.8817 7.66852 3.75 8.00004 3.75ZM13.4125 5.72312L12.9632 5.57375C13.044 4.8737 12.976 4.16447 12.7635 3.49255C12.5511 2.82064 12.199 2.20123 11.7303 1.67493C11.2617 1.14864 10.6871 0.72735 10.0442 0.438696C9.40137 0.150042 8.70474 0.000542176 8.00004 0C7.28614 0.000275606 6.58059 0.153559 5.93092 0.449522C5.28126 0.745485 4.70258 1.17725 4.23386 1.71573C3.76515 2.25422 3.41729 2.8869 3.21373 3.57117C3.01017 4.25543 2.95563 4.97538 3.05379 5.6825C2.45568 5.79402 1.90261 6.0762 1.46129 6.495C1.15577 6.78547 0.912891 7.13535 0.747584 7.52314C0.582277 7.91094 0.498034 8.32845 0.500035 8.75V11.2969C0.501348 11.9727 0.721155 12.63 1.12665 13.1707C1.53215 13.7113 2.10161 14.1064 2.75004 14.2969L4.54379 14.8594C4.84508 14.9531 5.15887 15.0006 5.47441 15C5.76066 14.9996 6.04553 14.9605 6.32129 14.8837L9.93379 13.815C10.2556 13.7272 10.5951 13.7272 10.9169 13.815L12.4088 14.315C12.7765 14.4045 13.1597 14.4094 13.5295 14.3292C13.8994 14.2491 14.2462 14.086 14.5438 13.8523C14.8415 13.6186 15.0822 13.3204 15.2478 12.9802C15.4135 12.64 15.4997 12.2665 15.5 11.8881V8.67C15.4986 8.02338 15.2972 7.39302 14.9235 6.86534C14.5498 6.33765 14.022 5.93847 13.4125 5.7225V5.72312ZM5.34879 2.35125C5.69645 2.00218 6.10962 1.7252 6.56459 1.53621C7.01956 1.34721 7.50737 1.24992 8.00004 1.24992C8.4927 1.24992 8.98051 1.34721 9.43549 1.53621C9.89046 1.7252 10.3036 2.00218 10.6513 2.35125C11.3526 3.05696 11.7469 4.01114 11.7481 5.00608C11.7494 6.00103 11.3577 6.95622 10.6582 7.66375L8.43754 9.82312C8.32164 9.93676 8.16579 10.0004 8.00347 10.0004C7.84116 10.0004 7.68531 9.93676 7.56941 9.82312L5.34879 7.67312C4.64596 6.96587 4.25148 6.00927 4.25148 5.01219C4.25148 4.0151 4.64596 3.05851 5.34879 2.35125ZM14.25 11.8881C14.2504 12.0774 14.2076 12.2643 14.1249 12.4346C14.0421 12.6048 13.9216 12.754 13.7725 12.8706C13.6317 12.9839 13.4676 13.0647 13.2919 13.1074C13.1163 13.1501 12.9334 13.1535 12.7563 13.1175L11.2907 12.625C10.7363 12.4657 10.1488 12.4623 9.59254 12.615L5.97754 13.6825C5.63021 13.7783 5.26263 13.772 4.91879 13.6644L3.11004 13.1019C2.71857 12.9887 2.37438 12.7515 2.12916 12.4261C1.88393 12.1006 1.7509 11.7044 1.75004 11.2969V8.75C1.74863 8.49736 1.79892 8.24711 1.8978 8.01463C1.99668 7.78214 2.14207 7.57234 2.32504 7.39812C2.61145 7.12516 2.9763 6.94897 3.36816 6.89437C3.6201 7.51886 3.99527 8.08619 4.47129 8.5625L6.70066 10.7206C7.04911 11.0618 7.51737 11.2529 8.00504 11.2529C8.49271 11.2529 8.96097 11.0618 9.30941 10.7206L11.5363 8.55625C12.0349 8.05565 12.4212 7.45461 12.6694 6.79312L13.005 6.90437C13.369 7.0348 13.6839 7.27435 13.9067 7.59033C14.1295 7.90632 14.2494 8.28336 14.25 8.67V11.8881Z" fill="black"/>
</svg>
