<svg width="25" height="25" viewBox="0 0 14 14" fill="none" xmlns="http://www.w3.org/2000/svg">
<path d="M0.72114 0.00473301C0.496849 0.0542234 0.296 0.224561 0.162778 0.478275C0.029556 0.731988 -0.0251265 1.04829 0.0107601 1.35761C0.0466466 1.66692 0.170163 1.94391 0.354136 2.12763C0.53811 2.31136 0.76747 2.38677 0.991761 2.33728H3.52883L3.68106 2.92041L4.37452 5.83609L5.06799 8.75178C5.13565 9.05501 5.42318 9.33491 5.64306 9.33491H11.5629C11.7997 9.33491 12.0703 9.05501 12.138 8.75178L13.508 2.92041C13.5756 2.61718 13.4742 2.33728 13.2374 2.33728H5.72763L5.0849 0.657845C5.01645 0.465082 4.91075 0.30211 4.77944 0.186876C4.64813 0.0716409 4.49631 0.00861322 4.3407 0.00473301L0.957934 0.00473301C0.907295 -0.00157767 0.856348 -0.00157767 0.805709 0.00473301C0.771912 0.00193143 0.738024 0.00193143 0.704226 0.00473301L0.72114 0.00473301ZM6.06591 11.6675C5.59232 11.6675 5.22022 12.1806 5.22022 12.8337C5.22022 13.4868 5.59232 14 6.06591 14C6.53949 14 6.9116 13.4868 6.9116 12.8337C6.9116 12.1806 6.53949 11.6675 6.06591 11.6675ZM11.1401 11.6675C10.6665 11.6675 10.2944 12.1806 10.2944 12.8337C10.2944 13.4868 10.6665 14 11.1401 14C11.6136 14 11.9857 13.4868 11.9857 12.8337C11.9857 12.1806 11.6136 11.6675 11.1401 11.6675Z" fill="white"/>
</svg>
