<svg width="15" height="14" viewBox="0 0 15 14" fill="none" xmlns="http://www.w3.org/2000/svg">
<g clip-path="url(#clip0_35_1458)">
<path d="M14.5002 6.56075C14.4158 5.19576 13.9338 3.8853 13.1137 2.79092C12.2936 1.69653 11.1711 0.866072 9.88467 0.401915C8.59826 -0.0622425 7.20413 -0.139805 5.87417 0.17879C4.5442 0.497384 3.33654 1.19821 2.40006 2.19486C1.46358 3.19152 0.839227 4.44043 0.60397 5.78763C0.368712 7.13484 0.532835 8.52144 1.0761 9.7765C1.61937 11.0316 2.51804 12.1002 3.66132 12.8507C4.80459 13.6012 6.1425 14.0007 7.51009 14H11.5835C12.3568 13.9992 13.0982 13.6917 13.6451 13.1449C14.1919 12.5981 14.4994 11.8566 14.5002 11.0833V6.56075ZM13.3335 11.0833C13.3335 11.5475 13.1491 11.9926 12.8209 12.3208C12.4928 12.649 12.0476 12.8333 11.5835 12.8333H7.51009C6.68697 12.833 5.87316 12.6591 5.12174 12.3231C4.37033 11.9871 3.69816 11.4965 3.14909 10.8833C2.59736 10.2703 2.18305 9.54653 1.93394 8.76038C1.68484 7.97423 1.60669 7.1439 1.70475 6.32508C1.85959 5.03355 2.43986 3.83028 3.35409 2.90496C4.26833 1.97964 5.46451 1.3849 6.75409 1.2145C7.00564 1.18297 7.2589 1.167 7.51242 1.16667C8.87187 1.16296 10.1892 1.63794 11.2335 2.50833C11.8434 3.01522 12.344 3.64067 12.705 4.34678C13.066 5.0529 13.2798 5.82496 13.3335 6.61617V11.0833Z" fill="black"/>
<path d="M5.16683 5.25H7.50017C7.65488 5.25 7.80325 5.18854 7.91264 5.07915C8.02204 4.96975 8.0835 4.82138 8.0835 4.66667C8.0835 4.51196 8.02204 4.36359 7.91264 4.25419C7.80325 4.14479 7.65488 4.08334 7.50017 4.08334H5.16683C5.01212 4.08334 4.86375 4.14479 4.75435 4.25419C4.64495 4.36359 4.5835 4.51196 4.5835 4.66667C4.5835 4.82138 4.64495 4.96975 4.75435 5.07915C4.86375 5.18854 5.01212 5.25 5.16683 5.25Z" fill="black"/>
<path d="M9.83349 6.41666H5.16683C5.01212 6.41666 4.86375 6.47812 4.75435 6.58752C4.64495 6.69691 4.5835 6.84529 4.5835 7C4.5835 7.15471 4.64495 7.30308 4.75435 7.41248C4.86375 7.52187 5.01212 7.58333 5.16683 7.58333H9.83349C9.9882 7.58333 10.1366 7.52187 10.246 7.41248C10.3554 7.30308 10.4168 7.15471 10.4168 7C10.4168 6.84529 10.3554 6.69691 10.246 6.58752C10.1366 6.47812 9.9882 6.41666 9.83349 6.41666Z" fill="black"/>
<path d="M9.83349 8.75H5.16683C5.01212 8.75 4.86375 8.81146 4.75435 8.92085C4.64495 9.03025 4.5835 9.17862 4.5835 9.33333C4.5835 9.48804 4.64495 9.63641 4.75435 9.74581C4.86375 9.85521 5.01212 9.91666 5.16683 9.91666H9.83349C9.9882 9.91666 10.1366 9.85521 10.246 9.74581C10.3554 9.63641 10.4168 9.48804 10.4168 9.33333C10.4168 9.17862 10.3554 9.03025 10.246 8.92085C10.1366 8.81146 9.9882 8.75 9.83349 8.75Z" fill="black"/>
</g>
<defs>
<clipPath id="clip0_35_1458">
<rect width="14" height="14" fill="white" transform="translate(0.5)"/>
</clipPath>
</defs>
</svg>
