<svg width="20" height="25" viewBox="0 0 20 30" fill="none" xmlns="http://www.w3.org/2000/svg">
<path d="M9.93964 0C6.51911 0 3.9839 0.975 2.37425 2.475C0.764587 3.975 0.201207 5.85 0 7.275L4.02415 7.7625C4.18511 6.825 4.50704 5.8875 5.27163 5.175C6.03622 4.4625 7.24346 3.75 9.93964 3.75C12.5956 3.75 14.0443 4.35 14.8491 5.025C15.6539 5.7 15.9759 6.525 15.9759 7.5C15.9759 10.6125 14.6076 11.475 12.5956 13.125C10.5835 14.775 7.92757 17.175 7.92757 21.5625V22.5H11.9517V21.5625C11.9517 18.45 13.1992 17.5875 15.2113 15.9375C17.2233 14.2875 20 11.8875 20 7.5C20 5.7 19.3159 3.675 17.6258 2.2125C15.8954 0.75 13.3199 0 9.93964 0ZM7.92757 26.25V30H11.9517V26.25H7.92757Z" fill="white"/>
</svg>
